<svg width="46" height="46" viewBox="0 0 46 46" fill="none" xmlns="http://www.w3.org/2000/svg">
<g filter="url(#filter0_d_1293_392)">
<rect x="4" width="38" height="38" rx="19" fill="url(#paint0_linear_1293_392)"/>
<rect x="5" y="1" width="36" height="36" rx="18" stroke="white" stroke-width="2"/>
</g>
<path d="M21.5465 19.9597C19.2997 17.7126 17.1689 16.1988 16.789 16.5791C16.781 16.587 16.7743 16.595 16.7676 16.6032L16.7594 16.6191C16.7542 16.6274 16.7502 16.6365 16.7474 16.6472L12.0996 27.7819C11.6714 28.8072 12.7004 29.835 13.7242 29.4068L24.8577 24.7602C24.8684 24.7575 24.8763 24.752 24.8858 24.748C24.891 24.7468 24.8965 24.7428 24.9017 24.74C24.9096 24.7333 24.9191 24.7266 24.9258 24.7187C25.3058 24.3384 23.7936 22.208 21.5452 19.9609L21.5465 19.9597Z" fill="#E9E9E9"/>
<path d="M16.8243 16.6144L16.8244 16.6144C16.8566 16.5821 16.9133 16.564 17.0056 16.5728C17.0973 16.5815 17.215 16.616 17.357 16.6768C17.6405 16.7983 18.0093 17.0198 18.4387 17.3249C19.2878 17.9282 20.3661 18.8531 21.4757 19.9597L21.4745 19.9609L21.5099 19.9962C22.6327 21.1184 23.5708 22.2107 24.1804 23.0688C24.4854 23.4982 24.7067 23.867 24.8281 24.1505C24.8889 24.2925 24.9234 24.4103 24.9321 24.5019C24.9408 24.5943 24.9227 24.651 24.8904 24.6833L24.8903 24.6832L24.8876 24.6864C24.8858 24.6885 24.8843 24.6898 24.8808 24.6925C24.8789 24.694 24.8764 24.696 24.873 24.6988L24.8724 24.6991L24.8711 24.6999L24.8665 24.7019C24.8626 24.7035 24.8593 24.7051 24.8566 24.7064L24.853 24.7083L24.8501 24.7097C24.8468 24.7113 24.8457 24.7117 24.8452 24.7118L24.8451 24.7113L24.8384 24.7141L13.705 29.3607L13.7049 29.3607C12.7224 29.7716 11.7348 28.7853 12.1458 27.8012L12.1458 27.8011L16.7936 16.6665L16.7941 16.6667L16.7959 16.6597C16.7974 16.6537 16.7994 16.6494 16.8017 16.6457L16.8018 16.6458L16.8037 16.6421L16.8096 16.6309C16.8146 16.6248 16.8193 16.6195 16.8243 16.6144Z" stroke="black" stroke-opacity="0.2" stroke-width="0.1"/>
<path d="M21.5464 19.9596C21.6796 20.0928 21.8116 20.2269 21.942 20.3619C22.0724 20.4966 22.2007 20.6316 22.3271 20.7666C22.4533 20.9019 22.577 21.0363 22.6979 21.1704C22.8189 21.3045 22.9368 21.4374 23.0513 21.5693C23.1659 21.7009 23.2764 21.8308 23.3833 21.959C23.4902 22.0873 23.5929 22.2129 23.6912 22.3362C23.7896 22.4596 23.883 22.58 23.9716 22.6973C24.0605 22.8146 24.1439 22.9282 24.2224 23.0384C24.3006 23.1487 24.3733 23.2547 24.4405 23.3567C24.5076 23.4587 24.5687 23.5562 24.624 23.6487C24.6793 23.7416 24.7285 23.8292 24.7715 23.912C24.8143 23.9948 24.851 24.072 24.8812 24.1438C24.9114 24.2156 24.935 24.2816 24.9521 24.3417C24.9692 24.4022 24.9799 24.4563 24.9835 24.5042C24.9875 24.5525 24.9847 24.5943 24.9756 24.6298C24.9661 24.6652 24.9502 24.6942 24.9276 24.7168C24.905 24.7394 24.876 24.7553 24.8406 24.7648C24.8051 24.7739 24.7633 24.7767 24.7153 24.7727C24.6671 24.769 24.613 24.7584 24.5525 24.7413C24.4924 24.7241 24.4264 24.7006 24.3546 24.6704C24.2828 24.6402 24.2056 24.6035 24.1228 24.5607C24.04 24.5177 23.9524 24.4685 23.8595 24.4132C23.767 24.3579 23.6695 24.2968 23.5675 24.2296C23.4655 24.1625 23.3595 24.0898 23.2493 24.0116C23.139 23.9331 23.0254 23.8497 22.9081 23.7608C22.7908 23.6722 22.6705 23.5788 22.5471 23.4804C22.4237 23.3821 22.2981 23.2794 22.1698 23.1725C22.0419 23.0656 21.9117 22.9551 21.7801 22.8405C21.6482 22.726 21.5153 22.6081 21.3812 22.4871C21.2471 22.3662 21.1127 22.2425 20.9774 22.1163C20.8424 21.9899 20.7074 21.8616 20.5727 21.7312C20.4377 21.6008 20.3036 21.4688 20.1705 21.3356C20.0373 21.2022 19.9053 21.0684 19.7749 20.9334C19.6445 20.7987 19.5162 20.6637 19.3898 20.5284C19.2636 20.3934 19.1399 20.2587 19.019 20.1246C18.8977 19.9905 18.7801 19.8576 18.6656 19.726C18.551 19.5943 18.4405 19.4642 18.3336 19.3363C18.2267 19.208 18.124 19.0821 18.0257 18.959C17.9273 18.8356 17.8339 18.7153 17.745 18.598C17.6564 18.4807 17.573 18.3668 17.4945 18.2568C17.4163 18.1466 17.3436 18.0406 17.2764 17.9386C17.2093 17.8366 17.1482 17.7391 17.0929 17.6463C17.0376 17.5537 16.9884 17.4658 16.9454 17.3833C16.9026 17.3005 16.8659 17.2232 16.8357 17.1515C16.8055 17.0797 16.7819 17.0137 16.7648 16.9532C16.7477 16.8931 16.737 16.839 16.7331 16.7907C16.7294 16.7428 16.7322 16.701 16.7413 16.6655C16.7508 16.6301 16.7667 16.6011 16.7893 16.5785C16.8119 16.5559 16.8409 16.54 16.8763 16.5305C16.9118 16.521 16.9536 16.5186 17.0016 16.5223C17.0498 16.5262 17.1039 16.5369 17.164 16.554C17.2245 16.5711 17.2905 16.5947 17.3623 16.6249C17.4341 16.6551 17.5113 16.6915 17.5941 16.7345C17.6766 16.7776 17.7645 16.8268 17.8571 16.8821C17.9499 16.9374 18.0474 16.9984 18.1494 17.0656C18.2514 17.1328 18.3574 17.2055 18.4676 17.2837C18.5776 17.3622 18.6915 17.4456 18.8088 17.5342C18.9261 17.6231 19.0465 17.7165 19.1698 17.8149C19.2929 17.9132 19.4188 18.0159 19.5471 18.1228C19.675 18.2297 19.8052 18.3402 19.9368 18.4548C20.0684 18.5693 20.2016 18.6869 20.3357 18.8082C20.4695 18.9291 20.6042 19.0528 20.7392 19.179C20.8745 19.3054 21.0095 19.4337 21.1442 19.5641C21.2792 19.6945 21.4133 19.8265 21.5464 19.9596Z" fill="#9E9C9C"/>
<path d="M21.9061 20.3967L21.906 20.3966C21.7758 20.2619 21.6441 20.128 21.5111 19.995C21.3781 19.862 21.2442 19.7303 21.1094 19.6001L21.1094 19.6C20.9749 19.4698 20.8401 19.3417 20.705 19.2155C20.705 19.2155 20.705 19.2155 20.705 19.2155L21.9061 20.3967ZM21.9061 20.3967C22.0363 20.5312 22.1644 20.666 22.2906 20.8008L22.3271 20.7666L22.2906 20.8007C22.4166 20.9359 22.5401 21.0701 22.6608 21.2039C22.7816 21.3378 22.8993 21.4704 23.0136 21.6021L23.0136 21.6021M21.9061 20.3967L23.0136 21.6021M23.0136 21.6021C23.1279 21.7335 23.2383 21.863 23.3449 21.991C23.4516 22.1191 23.554 22.2443 23.6521 22.3674C23.7502 22.4905 23.8434 22.6105 23.9317 22.7274L23.9318 22.7275M23.0136 21.6021L23.9318 22.7275M23.9318 22.7275C24.0203 22.8443 24.1034 22.9575 24.1816 23.0674M23.9318 22.7275L24.1816 23.0674M24.9337 24.5083L24.9337 24.508L24.9337 24.5083ZM24.9337 24.5083C24.9373 24.5526 24.9346 24.5886 24.9272 24.6172L24.9756 24.6298M24.9337 24.5083L24.7191 24.7229M24.7191 24.7229L24.7195 24.7229C24.7633 24.7265 24.7992 24.7238 24.8279 24.7164C24.8561 24.7088 24.8769 24.6969 24.8923 24.6815C24.9077 24.666 24.9197 24.6452 24.9273 24.6169L24.9756 24.6298M24.7191 24.7229C24.6752 24.7195 24.6246 24.7097 24.5662 24.6932C24.5083 24.6767 24.4443 24.6539 24.374 24.6243C24.3037 24.5947 24.2276 24.5586 24.1457 24.5163C24.064 24.4738 23.9773 24.4251 23.8852 24.3703C23.7933 24.3154 23.6964 24.2547 23.595 24.1879C23.4936 24.1211 23.3881 24.0487 23.2783 23.9708C23.1684 23.8926 23.0552 23.8095 22.9383 23.721L22.9382 23.7209M24.7191 24.7229L22.9382 23.7209M24.9756 24.6298C24.9847 24.5943 24.9875 24.5525 24.9835 24.5042L24.8406 24.7648C24.876 24.7553 24.905 24.7394 24.9276 24.7168C24.9502 24.6942 24.9661 24.6652 24.9756 24.6298ZM22.9382 23.7209C22.8213 23.6326 22.7013 23.5394 22.5782 23.4413C22.4552 23.3432 22.3299 23.2409 22.2019 23.1342C22.0741 23.0274 21.9443 22.9171 21.8129 22.8028L21.8129 22.8028M22.9382 23.7209L21.8129 22.8028M21.8129 22.8028C21.6812 22.6885 21.5486 22.5708 21.4147 22.45C21.2809 22.3293 21.1467 22.2058 21.0116 22.0798C20.8768 21.9535 20.742 21.8255 20.6075 21.6953L20.6075 21.6952M21.8129 22.8028L20.6075 21.6952M20.6075 21.6952C20.4727 21.565 20.3388 21.4333 20.2059 21.3003C20.0728 21.167 19.9411 21.0334 19.8109 20.8986L19.8108 20.8986M20.6075 21.6952L19.8108 20.8986M19.8108 20.8986C19.6806 20.7641 19.5526 20.6293 19.4263 20.4942L19.8108 20.8986ZM19.056 20.091L19.0561 20.0911L19.056 20.091ZM19.056 20.091C18.935 19.9572 18.8176 19.8246 18.7033 19.6932C18.589 19.5618 18.4787 19.432 18.3719 19.3042C18.2653 19.1762 18.1629 19.0506 18.0647 18.9278L18.0257 18.959L18.0648 18.9279C17.9667 18.8048 17.8735 18.6848 17.7848 18.5678L17.745 18.598M19.056 20.091L17.1358 17.6206M17.1358 17.6206L17.1358 17.6207C17.1907 17.7129 17.2514 17.8096 17.3182 17.9111C17.385 18.0125 17.4574 18.1181 17.5353 18.2279L17.4945 18.2568M17.1358 17.6206C17.081 17.5289 17.0323 17.4418 16.9897 17.3603M17.1358 17.6206L17.745 18.598M17.4945 18.2568L17.5352 18.2278C17.6135 18.3374 17.6966 18.451 17.7849 18.5679L17.745 18.598M17.4945 18.2568C17.573 18.3668 17.6564 18.4807 17.745 18.598M17.4945 18.2568C17.4163 18.1466 17.3436 18.0406 17.2764 17.9386C17.2093 17.8366 17.1482 17.7391 17.0929 17.6463C17.0376 17.5537 16.9884 17.4658 16.9454 17.3833M16.9454 17.3833L16.9898 17.3603C16.9898 17.3603 16.9897 17.3603 16.9897 17.3603M16.9454 17.3833C16.9026 17.3005 16.8659 17.2232 16.8357 17.1515C16.8055 17.0797 16.7819 17.0137 16.7648 16.9532C16.7477 16.8931 16.737 16.839 16.7331 16.7907L16.9454 17.3833ZM16.9897 17.3603C16.9474 17.2784 16.9114 17.2024 16.8818 17.1321C16.8522 17.0618 16.8294 16.9978 16.813 16.9396L16.8129 16.9396C16.7965 16.8816 16.7866 16.8309 16.7829 16.7868M16.9897 17.3603L16.7829 16.7868M16.7829 16.7868C16.7796 16.7429 16.7823 16.7069 16.7897 16.6782C16.7973 16.65 16.8092 16.6292 16.8246 16.6138L16.8246 16.6138C16.8401 16.5984 16.8609 16.5864 16.8892 16.5788L16.7829 16.7868ZM17.5941 16.7345L17.571 16.7789C17.4893 16.7364 17.4133 16.7006 17.3429 16.671C17.2726 16.6414 17.2086 16.6186 17.1504 16.6021L17.1504 16.6021C17.0924 16.5857 17.0417 16.5758 16.9976 16.5721L19.5151 18.1612C19.387 18.0545 19.2615 17.9521 19.1386 17.8539L19.1698 17.8149M17.5941 16.7345C17.6766 16.7776 17.7645 16.8268 17.8571 16.8821C17.9499 16.9374 18.0474 16.9984 18.1494 17.0656C18.2514 17.1328 18.3574 17.2055 18.4676 17.2837M17.5941 16.7345L17.571 16.7789C17.6525 16.8215 17.7397 16.8702 17.8314 16.925L17.8315 16.925C17.9237 16.9799 18.0205 17.0406 18.1219 17.1074C18.2234 17.1742 18.3289 17.2466 18.4387 17.3245L18.4676 17.2837M17.5941 16.7345C17.5113 16.6915 17.4341 16.6551 17.3623 16.6249C17.2905 16.5947 17.2245 16.5711 17.164 16.554L19.5471 18.1228C19.4188 18.0159 19.2929 17.9132 19.1698 17.8149M18.4676 17.2837L18.4386 17.3244C18.5482 17.4027 18.6618 17.4858 18.7787 17.5741L18.8088 17.5342M18.4676 17.2837C18.5776 17.3622 18.6915 17.4456 18.8088 17.5342M18.8088 17.5342C18.9261 17.6231 19.0465 17.7165 19.1698 17.8149M18.8088 17.5342L18.7786 17.574C18.8956 17.6627 19.0156 17.7559 19.1387 17.854L19.1698 17.8149M24.1816 23.0674C24.2595 23.1772 24.3319 23.2827 24.3987 23.3842M24.1816 23.0674L24.3987 23.3842M24.3987 23.3842C24.4655 23.4856 24.5262 23.5825 24.5811 23.6743M24.3987 23.3842L24.5811 23.6743M24.5811 23.6743C24.6359 23.7665 24.6846 23.8532 24.7271 23.9349C24.7694 24.0168 24.8055 24.0929 24.8351 24.1632C24.8647 24.2335 24.8875 24.2975 24.9039 24.3554L24.5811 23.6743Z" stroke="black" stroke-opacity="0.2" stroke-width="0.1"/>
<path d="M16.3192 19.5259L14.0187 24.8952C13.9625 25.0265 14.1418 25.1295 14.2261 25.0131L17.2786 20.792C17.3565 20.6851 17.3522 20.5391 17.2679 20.4361C17.1009 20.23 16.8171 19.8659 16.5908 19.5046C16.5254 19.3989 16.3675 19.4123 16.3192 19.5259Z" fill="#FCFDF3"/>
<path d="M16.3653 19.5455L16.3652 19.5456L14.0647 24.9149L16.3653 19.5455ZM16.3653 19.5455C16.3979 19.4686 16.5046 19.4603 16.5483 19.5309L16.5484 19.5311C16.7763 19.895 17.0616 20.2609 17.2291 20.4676L17.2292 20.4678C17.2992 20.5532 17.3026 20.6741 17.2382 20.7625L17.2381 20.7627M16.3653 19.5455L17.2381 20.7627M17.2381 20.7627L14.1856 24.9838C14.1856 24.9838 14.1856 24.9838 14.1856 24.9838M17.2381 20.7627L14.1856 24.9838M14.1856 24.9838C14.1374 25.0502 14.0312 24.9932 14.0647 24.9149L14.1856 24.9838Z" stroke="black" stroke-opacity="0.2" stroke-width="0.1"/>
<mask id="mask0_1293_392" style="mask-type:luminance" maskUnits="userSpaceOnUse" x="18" y="6" width="3" height="11">
<path d="M18.234 6H20.5016V16.5938H18.234V6Z" fill="white"/>
<path d="M18.284 6.05H20.4516V16.5437H18.284V6.05Z" stroke="white" stroke-width="0.1"/>
</mask>
<g mask="url(#mask0_1293_392)">
<path d="M19.1121 6.00519L18.2917 6.45601C19.3867 8.44746 20.3195 11.7504 18.5407 16.1802L19.4106 16.5296C21.326 11.7599 20.3061 8.17317 19.1137 6.00519H19.1121Z" fill="#FAFAFA"/>
<path d="M18.3595 6.47581L19.0935 6.07249C20.2658 8.22675 21.2539 11.7656 19.3827 16.4645L18.6056 16.1524C20.353 11.7623 19.4463 8.47577 18.3595 6.47581Z" stroke="black" stroke-opacity="0.2" stroke-width="0.1"/>
</g>
<path d="M24.9472 22.6429L25.2966 23.5128C28.063 22.4019 30.6925 22.2132 33.1109 22.9532L33.3852 22.058C30.7569 21.2538 27.9182 21.4517 24.9472 22.6441V22.6429Z" fill="#FAFAFA"/>
<path d="M25.0127 22.6718C27.9398 21.5068 30.7343 21.3121 33.3227 22.0913L33.0777 22.8909C30.6732 22.1681 28.0642 22.3572 25.3244 23.4478L25.0127 22.6718Z" stroke="black" stroke-opacity="0.2" stroke-width="0.1"/>
<path d="M29.3504 17.2135C30.5602 16.6887 31.5236 16.638 32.4551 16.5898C33.7746 16.5201 35.1399 16.4493 37 15.0641L36.4405 14.3134C34.8079 15.5284 33.6943 15.5873 32.4057 15.6542C31.4393 15.7052 30.3433 15.7626 28.9784 16.3543C26.3727 17.4838 24.8669 19.708 24.804 19.8017L25.5828 20.3222C25.5963 20.3008 27.0068 18.2306 29.3516 17.2135H29.3504Z" fill="#FAFAFA"/>
<path d="M29.3306 17.1681L29.3305 17.1676C30.5491 16.639 31.5203 16.5881 32.4525 16.5398L29.3306 17.1681ZM29.3306 17.1681C27.1577 18.111 25.7841 19.9511 25.5698 20.2534L24.8738 19.7883C25.0988 19.4652 26.5683 17.4535 28.9982 16.4002C30.3539 15.8126 31.4417 15.7552 32.407 15.7042L32.4082 15.7042L32.4057 15.6542L32.4083 15.7041L32.4083 15.7042C33.052 15.6707 33.6577 15.6392 34.3072 15.4626C34.9469 15.2887 35.6271 14.9747 36.4302 14.3832L36.93 15.0538C36.0216 15.7235 35.2335 16.0771 34.5118 16.272C33.7795 16.4698 33.1139 16.5049 32.4544 16.5397L32.4525 16.5398L29.3306 17.1681Z" stroke="black" stroke-opacity="0.2" stroke-width="0.1"/>
<path d="M25.069 11.5027C24.5953 9.66951 26.6604 7.69272 26.6992 7.65515L26.3791 7.31398L26.0593 6.97128C25.9563 7.0678 23.5461 9.35491 24.1616 11.737C24.6824 13.7498 24.1414 15.3372 22.5074 16.5898C19.9527 18.5504 19.6931 20.4105 19.6836 20.4896L20.6124 20.6099C20.6152 20.594 20.8614 19.0336 23.0776 17.3338C25.0141 15.8482 25.6845 13.8864 25.0678 11.5027H25.069Z" fill="#FAFAFA"/>
<path d="M24.8837 8.52311C25.3603 7.74291 25.9078 7.18773 26.0573 7.04242L26.3425 7.34809L26.3426 7.34819L26.6292 7.6537C26.5011 7.78109 26.0514 8.24553 25.6497 8.87879C25.1962 9.59362 24.7965 10.5349 25.0054 11.4527H25.0032L25.0194 11.5153C25.3258 12.6994 25.3117 13.7756 24.9828 14.7389C24.654 15.7021 24.009 16.5562 23.0472 17.2941C21.9337 18.1481 21.3136 18.9683 20.9713 19.5789C20.8002 19.8841 20.6987 20.1367 20.6397 20.3146C20.6101 20.4036 20.5912 20.4739 20.5796 20.5227C20.5768 20.5345 20.5744 20.5451 20.5724 20.5543L19.7408 20.4466C19.7961 20.1338 20.1972 18.4258 22.5378 16.6294C23.3609 15.9985 23.9117 15.2808 24.1899 14.4646C24.4681 13.6484 24.4723 12.7382 24.21 11.7245C23.9073 10.5529 24.3479 9.40028 24.8837 8.52311Z" stroke="black" stroke-opacity="0.2" stroke-width="0.1"/>
<path d="M31.1463 19.4737C31.1463 19.533 31.1405 19.5916 31.1289 19.6496C31.1173 19.708 31.1002 19.7642 31.0776 19.8188C31.055 19.8738 31.0272 19.9257 30.9942 19.9749C30.9612 20.0241 30.924 20.0696 30.8821 20.1118C30.8403 20.1536 30.7948 20.1909 30.7453 20.2239C30.6961 20.2568 30.6442 20.2843 30.5895 20.3072C30.5348 20.3298 30.4783 20.3469 30.4203 20.3585C30.3623 20.3702 30.3036 20.3757 30.2444 20.3757C30.1851 20.3757 30.1265 20.3702 30.0681 20.3585C30.0101 20.3469 29.9539 20.3298 29.8989 20.3072C29.8442 20.2843 29.7923 20.2568 29.7431 20.2239C29.694 20.1909 29.6481 20.1536 29.6063 20.1118C29.5645 20.0696 29.5272 20.0241 29.4942 19.9749C29.4612 19.9257 29.4334 19.8738 29.4108 19.8188C29.3882 19.7642 29.3711 19.708 29.3595 19.6496C29.3479 19.5916 29.3421 19.533 29.3421 19.4737C29.3421 19.4144 29.3479 19.3558 29.3595 19.2978C29.3711 19.2397 29.3882 19.1832 29.4108 19.1286C29.4334 19.0739 29.4612 19.022 29.4942 18.9728C29.5272 18.9233 29.5645 18.8778 29.6063 18.8359C29.6481 18.7941 29.694 18.7565 29.7431 18.7239C29.7923 18.6909 29.8442 18.6631 29.8989 18.6405C29.9539 18.6179 30.0101 18.6008 30.0681 18.5892C30.1265 18.5776 30.1851 18.5717 30.2444 18.5717C30.3036 18.5717 30.3623 18.5776 30.4203 18.5892C30.4783 18.6008 30.5348 18.6179 30.5895 18.6405C30.6442 18.6631 30.6961 18.6909 30.7453 18.7239C30.7948 18.7565 30.8403 18.7941 30.8821 18.8359C30.924 18.8778 30.9612 18.9233 30.9942 18.9728C31.0272 19.022 31.055 19.0739 31.0776 19.1286C31.1002 19.1832 31.1173 19.2397 31.1289 19.2978C31.1405 19.3558 31.1463 19.4144 31.1463 19.4737Z" fill="#FAFAFA"/>
<path d="M30.5895 18.6405L30.5704 18.6867C30.622 18.708 30.671 18.7342 30.7174 18.7654L30.7174 18.7654L30.7177 18.7656C30.7642 18.7963 30.8072 18.8317 30.8468 18.8713C30.8863 18.9108 30.9214 18.9538 30.9526 19.0005L30.9527 19.0006C30.9838 19.0471 31.01 19.0961 31.0314 19.1477C31.0527 19.1993 31.0689 19.2527 31.0799 19.3076C31.0908 19.3624 31.0963 19.4177 31.0963 19.4737C31.0963 19.5297 31.0908 19.585 31.0799 19.6398L31.0799 19.6399C31.0689 19.695 31.0528 19.7481 31.0314 19.7997L31.0313 19.7998C31.01 19.8517 30.9838 19.9007 30.9527 19.9471C30.9215 19.9936 30.8862 20.0366 30.8466 20.0765L30.8821 20.1118M30.5895 18.6405L30.5704 18.6867C30.5188 18.6653 30.4654 18.6492 30.4105 18.6382C30.3557 18.6272 30.3003 18.6217 30.2444 18.6217C30.1884 18.6217 30.133 18.6272 30.0779 18.6382L30.0681 18.5892M30.5895 18.6405C30.6442 18.6631 30.6961 18.6909 30.7453 18.7239H29.7431C29.7923 18.6909 29.8442 18.6631 29.8989 18.6405M30.5895 18.6405C30.5348 18.6179 30.4783 18.6008 30.4203 18.5892C30.3623 18.5776 30.3036 18.5717 30.2444 18.5717C30.1851 18.5717 30.1265 18.5776 30.0681 18.5892M30.0681 18.5892L30.0779 18.6382C30.0231 18.6491 29.97 18.6653 29.9179 18.6867L29.8989 18.6405M30.0681 18.5892C30.0101 18.6008 29.9539 18.6179 29.8989 18.6405M29.8989 18.6405L29.918 18.6867C29.8664 18.708 29.8174 18.7342 29.771 18.7654L29.7708 18.7655L29.7708 18.7655C29.7244 18.7963 29.6812 18.8318 29.6417 18.8713C29.6022 18.9108 29.567 18.9538 29.5358 19.0005L29.5357 19.0006C29.5046 19.0471 29.4784 19.0961 29.457 19.1477C29.4357 19.1993 29.4195 19.2527 29.4085 19.3076C29.3976 19.3624 29.3921 19.4177 29.3921 19.4737C29.3921 19.5297 29.3976 19.585 29.4085 19.6398L29.4086 19.6399C29.4195 19.695 29.4357 19.7481 29.457 19.7997L29.4571 19.7998C29.4784 19.8517 29.5046 19.9007 29.5357 19.9471C29.5669 19.9936 29.6022 20.0366 29.6418 20.0765L29.6063 20.1118M29.6063 20.1118L29.6417 20.0764C29.6811 20.1158 29.7244 20.151 29.771 20.1823C29.8172 20.2134 29.8662 20.2393 29.9181 20.2611C29.9701 20.2824 30.0232 20.2986 30.0779 20.3095L30.0681 20.3585M29.6063 20.1118C29.6481 20.1536 29.694 20.1909 29.7431 20.2239C29.7923 20.2568 29.8442 20.2843 29.8989 20.3072C29.9539 20.3298 30.0101 20.3469 30.0681 20.3585M29.6063 20.1118C29.5645 20.0696 29.5272 20.0241 29.4942 19.9749C29.4612 19.9257 29.4334 19.8738 29.4108 19.8188C29.3882 19.7642 29.3711 19.708 29.3595 19.6496C29.3479 19.5916 29.3421 19.533 29.3421 19.4737C29.3421 19.4144 29.3479 19.3558 29.3595 19.2978C29.3711 19.2397 29.3882 19.1832 29.4108 19.1286C29.4334 19.0739 29.4612 19.022 29.4942 18.9728L31.0776 19.8188C31.055 19.8738 31.0272 19.9257 30.9942 19.9749C30.9612 20.0241 30.924 20.0696 30.8821 20.1118M30.0681 20.3585L30.0779 20.3095C30.1329 20.3204 30.1882 20.3257 30.2444 20.3257C30.3005 20.3257 30.3559 20.3204 30.4105 20.3095C30.4654 20.2985 30.5188 20.2824 30.5704 20.261L30.5895 20.3072M30.0681 20.3585C30.1265 20.3702 30.1851 20.3757 30.2444 20.3757C30.3036 20.3757 30.3623 20.3702 30.4203 20.3585C30.4783 20.3469 30.5348 20.3298 30.5895 20.3072M30.5895 20.3072L30.5702 20.2611C30.6221 20.2394 30.6711 20.2134 30.7174 20.1823L30.7175 20.1822C30.7643 20.1511 30.8073 20.1159 30.8468 20.0764L30.8821 20.1118M30.5895 20.3072C30.6442 20.2843 30.6961 20.2568 30.7453 20.2239C30.7948 20.1909 30.8403 20.1536 30.8821 20.1118" stroke="black" stroke-opacity="0.2" stroke-width="0.1"/>
<path d="M32.1017 13.0541C32.3134 13.2654 32.6573 13.2654 32.8686 13.0541C33.08 12.8424 33.08 12.4985 32.8686 12.2871C32.6573 12.0757 32.3134 12.0757 32.1017 12.2871C31.8903 12.4985 31.8903 12.8424 32.1017 13.0541Z" fill="#FAFAFA"/>
<path d="M32.1017 13.0541L32.1371 13.0187C31.9452 12.8266 31.9452 12.5143 32.1371 12.3225C32.3292 12.1306 32.6415 12.1306 32.8333 12.3225C33.0251 12.5143 33.0252 12.8266 32.8333 13.0187C32.6414 13.2105 32.3292 13.2106 32.137 13.0187L32.1017 13.0541ZM32.1017 13.0541C31.8903 12.8424 31.8903 12.4985 32.1017 12.2871L32.8686 13.0541C32.6573 13.2654 32.3134 13.2654 32.1017 13.0541Z" stroke="black" stroke-opacity="0.2" stroke-width="0.1"/>
<path d="M16.9227 10.2382C16.7114 10.4496 16.7114 10.7935 16.9227 11.0049C17.1341 11.2165 17.478 11.2165 17.6897 11.0049C17.9011 10.7935 17.9011 10.4496 17.6897 10.2382C17.478 10.0266 17.1341 10.0266 16.9227 10.2382Z" fill="#FAFAFA"/>
<path d="M16.9581 10.2736L16.9581 10.2736C17.1499 10.0815 17.4622 10.0814 17.6543 10.2736C17.8462 10.4654 17.8462 10.7777 17.6543 10.9695C17.4622 11.1617 17.1499 11.1616 16.9581 10.9695L16.9581 10.9695C16.7663 10.7777 16.7663 10.4654 16.9581 10.2736Z" stroke="black" stroke-opacity="0.2" stroke-width="0.1"/>
<path d="M29.7718 9.40562L30.7407 9.16738L31.4862 9.8314L31.5599 8.83567L32.4203 8.33109L31.4969 7.9551L31.2828 6.97954L30.639 7.74221L29.646 7.64447L30.172 8.49175L29.7718 9.40562Z" fill="#FAFAFA"/>
<path d="M30.7739 9.13004L30.7543 9.11254L30.7287 9.11882L29.8583 9.33287L30.2178 8.51181L30.2283 8.48772L30.2144 8.46538L29.7419 7.70415L30.6341 7.79197L30.6602 7.79455L30.6772 7.77447L31.2557 7.08918L31.4481 7.96582L31.4537 7.9915L31.4781 8.00141L32.3076 8.3392L31.5346 8.79254L31.5119 8.80582L31.51 8.83199L31.4439 9.72668L30.7739 9.13004Z" stroke="black" stroke-opacity="0.2" stroke-width="0.1"/>
<path d="M21.0034 15.7092L21.5532 15.5739L21.9762 15.9514L22.0178 15.3867L22.5062 15.1002L21.9814 14.8861L21.8599 14.3332L21.4946 14.7657L20.931 14.7095L21.2294 15.1912L21.0034 15.7092Z" fill="#FAFAFA"/>
<path d="M21.5865 15.5366L21.5668 15.5191L21.5413 15.5254L21.0897 15.6365L21.2753 15.2112L21.2858 15.1872L21.2719 15.1649L21.0269 14.7693L21.4896 14.8155L21.5158 14.8181L21.5328 14.798L21.8328 14.4428L21.9326 14.8968L21.9382 14.9224L21.9625 14.9324L22.3936 15.1082L21.9925 15.3435L21.9698 15.3568L21.9679 15.383L21.9338 15.8465L21.5865 15.5366Z" stroke="black" stroke-opacity="0.2" stroke-width="0.1"/>
<path d="M36.0846 20.3369L35.7553 19.8845L35.5974 20.4212L35.0648 20.594L35.5266 20.9111V21.4707L35.971 21.1292L36.5021 21.3021L36.3161 20.7746L36.6439 20.3222L36.0846 20.3369Z" fill="#FAFAFA"/>
<path d="M36.0442 20.3663L36.0596 20.3875L36.0859 20.3869L36.544 20.3748L36.2756 20.7452L36.2603 20.7665L36.269 20.7912L36.4213 21.2232L35.9865 21.0816L35.9614 21.0735L35.9405 21.0895L35.5766 21.3692V20.9111V20.8848L35.5549 20.8699L35.1767 20.6103L35.6129 20.4687L35.638 20.4606L35.6454 20.4353L35.7747 19.996L36.0442 20.3663Z" stroke="black" stroke-opacity="0.2" stroke-width="0.1"/>
<path d="M26.869 11.7425H27.8513V13.2975H26.869V11.7425Z" fill="#FAFAFA"/>
<path d="M26.919 11.7925H27.8013V13.2475H26.919V11.7925Z" stroke="black" stroke-opacity="0.2" stroke-width="0.1"/>
<path d="M21.8229 7.31184L22.2957 6.74068L23.1986 7.48838L22.7257 8.05955L21.8229 7.31184Z" fill="#FAFAFA"/>
<path d="M22.7191 7.98914L21.8933 7.30522L22.3023 6.81108L23.1282 7.49501L22.7191 7.98914Z" stroke="black" stroke-opacity="0.2" stroke-width="0.1"/>
<path d="M22.4872 20.7419L23.5993 20.2895L23.9695 21.1994L22.8574 21.6518L22.4872 20.7419Z" fill="#FAFAFA"/>
<path d="M22.8848 21.5866L22.5523 20.7693L23.5718 20.3547L23.9043 21.1719L22.8848 21.5866Z" stroke="black" stroke-opacity="0.2" stroke-width="0.1"/>
<defs>
<filter id="filter0_d_1293_392" x="0" y="0" width="46" height="46" filterUnits="userSpaceOnUse" color-interpolation-filters="sRGB">
<feFlood flood-opacity="0" result="BackgroundImageFix"/>
<feColorMatrix in="SourceAlpha" type="matrix" values="0 0 0 0 0 0 0 0 0 0 0 0 0 0 0 0 0 0 127 0" result="hardAlpha"/>
<feOffset dy="4"/>
<feGaussianBlur stdDeviation="2"/>
<feComposite in2="hardAlpha" operator="out"/>
<feColorMatrix type="matrix" values="0 0 0 0 0 0 0 0 0 0 0 0 0 0 0 0 0 0 0.25 0"/>
<feBlend mode="normal" in2="BackgroundImageFix" result="effect1_dropShadow_1293_392"/>
<feBlend mode="normal" in="SourceGraphic" in2="effect1_dropShadow_1293_392" result="shape"/>
</filter>
<linearGradient id="paint0_linear_1293_392" x1="23" y1="0" x2="23" y2="38" gradientUnits="userSpaceOnUse">
<stop stop-color="#73FDE1"/>
<stop offset="1" stop-color="#0C9286"/>
</linearGradient>
</defs>
</svg>
