<svg width="19" height="19" viewBox="0 0 19 19" fill="none" xmlns="http://www.w3.org/2000/svg">
<mask id="mask0_1264_43" style="mask-type:luminance" maskUnits="userSpaceOnUse" x="0" y="0" width="19" height="19">
<path d="M0 0H19V19H0V0Z" fill="white"/>
</mask>
<g mask="url(#mask0_1264_43)">
<path d="M17.634 3.16586H16.2783V1.58307C16.2783 0.709291 15.6711 0 14.9227 0H1.36565C0.617275 0 0.0100098 0.709291 0.0100098 1.58307V14.246C0.0100098 15.1195 0.617275 15.8288 1.36565 15.8288H2.72151V17.4116C2.72151 18.2854 3.32878 18.9944 4.07715 18.9944H17.634C18.3824 18.9944 18.9899 18.2854 18.9899 17.4116V4.74866C18.9899 3.87489 18.3824 3.16586 17.634 3.16586ZM2.72151 4.74866V14.246H1.36565V1.58307H14.9227V3.16586H4.07715C3.32878 3.16586 2.72151 3.87489 2.72151 4.74866ZM17.634 17.4116H4.07715V4.74866H17.634V17.4116Z" fill="#523705"/>
</g>
<path d="M8.14437 7.91452C8.14437 7.96614 8.14207 8.01802 8.13772 8.06964C8.13337 8.12126 8.12696 8.17234 8.11825 8.22316C8.10955 8.27398 8.09878 8.32426 8.08595 8.37401C8.0729 8.42348 8.05801 8.47216 8.04105 8.52004C8.0241 8.56818 8.00509 8.61498 7.98425 8.66045C7.96317 8.70618 7.94049 8.75058 7.91575 8.79391C7.89101 8.83697 7.86467 8.87843 7.8365 8.91854C7.80832 8.95866 7.77854 8.99691 7.74716 9.03355C7.71578 9.07046 7.68302 9.10523 7.64866 9.13786C7.6143 9.17075 7.57856 9.20178 7.54168 9.2304C7.5048 9.25928 7.46678 9.28603 7.4276 9.31036C7.38843 9.3347 7.34835 9.3569 7.30734 9.37669C7.26634 9.39675 7.22465 9.41414 7.18204 9.42912C7.13966 9.44409 7.0966 9.45666 7.05308 9.46683C7.00955 9.47699 6.96557 9.48448 6.92136 9.48956C6.87738 9.49464 6.83294 9.49732 6.7885 9.49732C6.74406 9.49732 6.69985 9.49464 6.65564 9.48956C6.61143 9.48448 6.56768 9.47699 6.52415 9.46683C6.48063 9.45666 6.43756 9.44409 6.39496 9.42912C6.35258 9.41414 6.31089 9.39675 6.26965 9.37669C6.22865 9.3569 6.18856 9.3347 6.14939 9.31036C6.11045 9.28603 6.0722 9.25928 6.03532 9.2304C5.99844 9.20178 5.96293 9.17075 5.92857 9.13786C5.89421 9.10523 5.86145 9.07046 5.82984 9.03355C5.79846 8.99691 5.76868 8.95866 5.7405 8.91854C5.71233 8.87843 5.68598 8.83697 5.66124 8.79391C5.63673 8.75058 5.61383 8.70618 5.59298 8.66045C5.57214 8.61498 5.55312 8.56818 5.53617 8.52004C5.51899 8.47216 5.5041 8.42348 5.49127 8.37401C5.47845 8.32426 5.46768 8.27398 5.45898 8.22316C5.45027 8.17234 5.44386 8.12126 5.4395 8.06964C5.43515 8.01802 5.43286 7.96614 5.43286 7.91452C5.43286 7.86263 5.43515 7.81074 5.4395 7.75939C5.44386 7.70777 5.45027 7.65642 5.45898 7.60561C5.46768 7.55479 5.47845 7.50451 5.49127 7.45503C5.5041 7.40528 5.51899 7.35661 5.53617 7.30873C5.55312 7.26086 5.57214 7.21405 5.59298 7.16832C5.61383 7.12258 5.63673 7.07819 5.66124 7.03513C5.68598 6.9918 5.71233 6.95034 5.7405 6.91022C5.76868 6.87011 5.79846 6.83186 5.82984 6.79522C5.86145 6.75858 5.89421 6.72381 5.92857 6.69091C5.96293 6.65801 5.99844 6.62699 6.03532 6.59837C6.0722 6.56949 6.11045 6.54301 6.14939 6.5184C6.18856 6.49406 6.22865 6.47187 6.26988 6.45207C6.31089 6.43228 6.35258 6.41463 6.39496 6.39965C6.43756 6.38467 6.48063 6.3721 6.52415 6.36194C6.56768 6.35178 6.61143 6.34429 6.65564 6.33921C6.69985 6.33413 6.74406 6.33145 6.7885 6.33145C6.83294 6.33145 6.87738 6.33413 6.92136 6.33921C6.96557 6.34429 7.00955 6.35178 7.05308 6.36194C7.0966 6.3721 7.13966 6.38467 7.18204 6.39965C7.22465 6.41463 7.26634 6.43228 7.30734 6.45207C7.34835 6.47187 7.38843 6.49406 7.4276 6.5184C7.46678 6.54301 7.5048 6.56949 7.54168 6.59837C7.57856 6.62699 7.6143 6.65801 7.64866 6.69091C7.68302 6.72381 7.71578 6.75858 7.74716 6.79522C7.77854 6.83186 7.80832 6.87011 7.8365 6.91022C7.86467 6.95034 7.89101 6.9918 7.91575 7.03513C7.94049 7.07819 7.96317 7.12258 7.98425 7.16832C8.00509 7.21405 8.0241 7.26086 8.04105 7.30873C8.05801 7.35661 8.0729 7.40528 8.08595 7.45503C8.09878 7.50451 8.10955 7.55479 8.11825 7.60561C8.12696 7.65642 8.13337 7.70777 8.13772 7.75939C8.14207 7.81074 8.14437 7.86263 8.14437 7.91452Z" fill="#523705"/>
<path d="M12.4825 9.49731L10.0259 13.5937L8.68657 12.0298L5.43286 15.8288H16.2784L12.4825 9.49731Z" fill="#523705"/>
</svg>
