<svg width="19" height="19" viewBox="0 0 19 19" fill="none" xmlns="http://www.w3.org/2000/svg">
<path d="M11.0233 0.0672021C10.792 -0.0459036 10.5143 -0.0144088 10.3145 0.147893L3.76912 5.42846H0.670834C0.299967 5.42846 0 5.73237 0 6.10709V12.8928C0 13.2675 0.299967 13.5714 0.670834 13.5714H3.76912L10.3145 18.852C10.435 18.9497 10.5831 19 10.7324 19C10.8313 19 10.9308 18.9777 11.0233 18.9326C11.2558 18.8198 11.4033 18.5823 11.4033 18.3214V0.678479C11.4033 0.417784 11.2558 0.180078 11.0233 0.0672021Z" fill="#523705"/>
<path d="M12.2705 6.30594C12.0085 6.57101 12.0085 7.00044 12.2705 7.2655C13.3231 8.33058 13.3231 10.6693 12.2705 11.7346C12.0085 11.9996 12.0085 12.4291 12.2705 12.6941C12.4016 12.8265 12.5732 12.8927 12.7448 12.8927C12.9163 12.8927 13.0881 12.8265 13.219 12.6941C14.7834 11.1118 14.7834 7.88805 13.219 6.30594C12.957 6.04088 12.5325 6.04088 12.2705 6.30594Z" fill="#523705"/>
<path d="M16.5938 4.29212C16.3436 4.01533 15.9178 3.99648 15.646 4.24936C15.3728 4.50201 15.3538 4.93121 15.6035 5.20777C16.5454 6.24986 17.1224 7.88736 17.1467 9.58786C17.1715 11.3272 16.6245 12.844 15.646 13.7491C15.3728 14.0022 15.3538 14.4312 15.6035 14.708C15.7358 14.8544 15.9171 14.9287 16.0987 14.9287C16.2605 14.9287 16.4223 14.8698 16.5513 14.751C17.8123 13.5843 18.5184 11.6955 18.4882 9.56832C18.4593 7.54483 17.7512 5.5726 16.5938 4.29212Z" fill="#523705"/>
</svg>
