<svg width="23" height="12" viewBox="0 0 23 12" fill="none" xmlns="http://www.w3.org/2000/svg">
<path d="M2.8786 5.32294L1.83642 6.37625C1.79989 6.41484 1.76727 6.45653 1.73827 6.50161C1.70956 6.5464 1.6853 6.59373 1.66578 6.64331C1.64599 6.69289 1.63093 6.74388 1.6209 6.79627C1.61086 6.84895 1.60584 6.90192 1.60584 6.95516C1.60584 7.00868 1.61086 7.06164 1.6209 7.11404C1.63093 7.16672 1.64599 7.21771 1.66578 7.26729C1.6853 7.31687 1.70956 7.3642 1.73827 7.40899C1.76727 7.45378 1.79989 7.49548 1.83642 7.53407C1.8735 7.57238 1.91392 7.60647 1.9577 7.63661C2.00147 7.66675 2.04775 7.69211 2.09627 7.71295C2.14506 7.73352 2.19552 7.7493 2.24738 7.75972C2.29924 7.77042 2.35166 7.77578 2.40463 7.77578C2.4576 7.77578 2.51002 7.77042 2.56188 7.75972C2.61374 7.7493 2.66392 7.73352 2.71271 7.71295C2.7615 7.69211 2.80779 7.66675 2.85156 7.63661C2.89533 7.60647 2.93576 7.57238 2.97256 7.53407L4.04905 6.44611C4.79765 7.087 5.60926 7.63239 6.48361 8.08256L5.48408 9.64069C5.45508 9.68548 5.43055 9.73281 5.41075 9.78267C5.39068 9.83225 5.37562 9.88352 5.36586 9.9362C5.35583 9.98888 5.35109 10.0418 5.35137 10.0956C5.35192 10.1492 5.35722 10.2024 5.36809 10.2548C5.37869 10.3072 5.3943 10.3582 5.41493 10.4078C5.43557 10.4571 5.46094 10.5041 5.49049 10.5484C5.52032 10.5929 5.55406 10.634 5.5917 10.6715C5.62962 10.7092 5.6706 10.743 5.71493 10.7726C5.75871 10.8022 5.80527 10.827 5.85406 10.8472C5.90285 10.8675 5.95331 10.8827 6.00517 10.8929C6.05703 10.903 6.10945 10.9078 6.16214 10.9075C6.21512 10.907 6.26725 10.9013 6.31883 10.8903C6.37069 10.8796 6.42088 10.8636 6.46939 10.8425C6.5179 10.8213 6.56391 10.7957 6.6074 10.7656C6.6509 10.7351 6.69104 10.7008 6.72757 10.6624C6.76437 10.6241 6.79699 10.5824 6.82543 10.5374L7.99587 8.70936C8.87552 9.00543 9.7783 9.18263 10.7037 9.24038V11.1816C10.7034 11.2352 10.7081 11.2881 10.7179 11.3408C10.7279 11.3935 10.743 11.4448 10.7628 11.4943C10.7829 11.5439 10.8074 11.591 10.8367 11.6357C10.8659 11.6805 10.8991 11.722 10.9365 11.76C10.9738 11.798 11.0145 11.8318 11.0583 11.862C11.1024 11.8918 11.1489 11.9169 11.1977 11.9377C11.2468 11.9583 11.2973 11.9738 11.3491 11.9842C11.4013 11.9949 11.4537 12 11.5066 12C11.5599 12 11.6123 11.9949 11.6642 11.9842C11.7163 11.9738 11.7668 11.9583 11.8158 11.9377C11.8646 11.9169 11.9112 11.8918 11.955 11.862C11.999 11.8318 12.0397 11.798 12.0771 11.76C12.1144 11.722 12.1476 11.6805 12.1769 11.6357C12.2062 11.591 12.2307 11.5439 12.2508 11.4943C12.2706 11.4448 12.2856 11.3935 12.2957 11.3408C12.3054 11.2881 12.3102 11.2352 12.3099 11.1816V9.24038C13.2353 9.18263 14.138 9.00543 15.0177 8.70936L16.1881 10.5374C16.2166 10.5824 16.2492 10.6241 16.286 10.6624C16.3225 10.7008 16.3627 10.7351 16.4062 10.7656C16.4497 10.7957 16.4957 10.8213 16.5442 10.8425C16.5927 10.8636 16.6429 10.8796 16.6944 10.8903C16.7463 10.9013 16.7984 10.907 16.8514 10.9075C16.9041 10.9078 16.9565 10.903 17.0084 10.8929C17.0602 10.8827 17.1107 10.8675 17.1595 10.8472C17.2083 10.827 17.2549 10.8022 17.2986 10.7726C17.343 10.743 17.3839 10.7092 17.4219 10.6715C17.4595 10.634 17.4932 10.5929 17.5231 10.5484C17.5526 10.5041 17.578 10.4571 17.5986 10.4078C17.6193 10.3582 17.6349 10.3072 17.6455 10.2548C17.6563 10.2024 17.6616 10.1492 17.6622 10.0956C17.6625 10.0418 17.6577 9.98888 17.6477 9.9362C17.6377 9.88352 17.6229 9.83225 17.6028 9.78267C17.583 9.73281 17.5585 9.68576 17.5292 9.64069L16.5299 8.08256C17.4057 7.63464 18.217 7.08897 18.9645 6.44611L20.041 7.53407C20.0778 7.57238 20.1182 7.60647 20.162 7.63661C20.2058 7.66675 20.2521 7.69211 20.3008 7.71295C20.3496 7.73352 20.3998 7.7493 20.4517 7.75972C20.5035 7.77042 20.556 7.77578 20.6089 7.77578C20.6619 7.77578 20.7143 7.77042 20.7662 7.75972C20.818 7.7493 20.8682 7.73352 20.917 7.71295C20.9658 7.69211 21.0121 7.66675 21.0559 7.63661C21.0996 7.60647 21.1401 7.57238 21.1771 7.53407C21.2137 7.49548 21.2463 7.45378 21.275 7.40899C21.304 7.3642 21.3283 7.31687 21.3478 7.26729C21.3676 7.21771 21.3826 7.16672 21.3927 7.11404C21.4027 7.06164 21.4077 7.00868 21.4077 6.95516C21.4077 6.90192 21.4027 6.84895 21.3927 6.79627C21.3826 6.74388 21.3676 6.69289 21.3478 6.64331C21.3283 6.59373 21.304 6.5464 21.275 6.50161C21.2463 6.45653 21.2137 6.41484 21.1771 6.37625L20.135 5.32294C20.8819 4.5195 21.5424 3.64902 22.1167 2.7115C22.39 2.25879 22.5952 1.87595 22.7318 1.59734C22.8001 1.45789 22.8514 1.34493 22.8941 1.26661C22.9219 1.21506 22.9442 1.16125 22.9615 1.10519C22.9785 1.04941 22.99 0.992228 22.9958 0.933914C23.0014 0.8756 23.0014 0.817287 22.9958 0.758973C22.99 0.700659 22.9785 0.643472 22.9612 0.587412C22.9442 0.531634 22.9217 0.477828 22.8941 0.426275C22.8662 0.375004 22.8336 0.326832 22.7965 0.28204C22.7591 0.236967 22.7176 0.196401 22.6724 0.159778C22.627 0.123438 22.5784 0.0918866 22.5269 0.0651243C22.4783 0.0442778 22.4284 0.0285021 22.3771 0.0175155C22.3256 0.00681051 22.2737 0.000894628 22.221 0.000331246C22.1686 4.94831e-05 22.1165 0.00455686 22.0646 0.0144167C22.013 0.0242765 21.9628 0.0389254 21.914 0.058645C21.8652 0.0786463 21.819 0.102873 21.7749 0.132171C21.7309 0.161187 21.6902 0.194147 21.6525 0.231332C21.6149 0.268518 21.5811 0.308802 21.5516 0.352749C21.5218 0.396696 21.4967 0.442896 21.476 0.491631V0.500364C21.4674 0.500364 21.4674 0.500364 21.4674 0.509097C21.4579 0.533324 21.4465 0.556424 21.4334 0.578679C21.4077 0.63981 21.3651 0.735591 21.3051 0.857289C21.1855 1.09252 20.9976 1.44043 20.75 1.84975C20.1034 2.90503 19.3376 3.86256 18.4521 4.72233C17.9608 5.20096 17.4291 5.62831 16.8573 6.00467C16.2857 6.38075 15.6838 6.69908 15.052 6.95967C14.4879 7.18616 13.908 7.35659 13.3117 7.47097C12.7153 7.58506 12.1136 7.64112 11.5066 7.63858C8.05554 7.63858 5.57804 5.88016 3.92944 4.07835C3.23994 3.31041 2.63325 2.4805 2.10993 1.58861C1.91337 1.25788 1.76811 0.970536 1.67415 0.778974C1.63428 0.709111 1.59998 0.636711 1.57155 0.561495C1.55928 0.546001 1.55091 0.528535 1.54617 0.509097C1.54617 0.503182 1.54339 0.500364 1.53753 0.500364V0.491631C1.5169 0.442614 1.49153 0.396132 1.4617 0.352186C1.43186 0.308239 1.39813 0.267391 1.36021 0.230206C1.32257 0.19302 1.28158 0.159778 1.23725 0.130762C1.19292 0.101746 1.14636 0.0772378 1.09729 0.0575181C1.04822 0.0377986 0.997756 0.0231497 0.945898 0.0135716C0.893761 0.00371173 0.841623 -0.000513844 0.788649 4.95372e-05C0.735954 0.000894682 0.683817 0.00709226 0.632237 0.0183606C0.580658 0.0293472 0.530472 0.0456864 0.482238 0.0668145C0.433725 0.0882245 0.387721 0.114142 0.344506 0.144284C0.301012 0.174709 0.261142 0.209077 0.224339 0.247672C0.187815 0.285984 0.155194 0.327677 0.126756 0.372469C0.0983174 0.417542 0.0743398 0.464869 0.0551019 0.51445C0.035864 0.564031 0.0216447 0.615302 0.012444 0.667699C0.00324334 0.720379 -0.000938821 0.773058 0.000176416 0.826583C0.00129165 0.879826 0.00770429 0.932506 0.0191355 0.984622C0.0305666 1.03674 0.0467376 1.08716 0.0682059 1.1359L0.076849 1.17083C0.0852133 1.18802 0.0938564 1.21421 0.110864 1.24915C0.136514 1.31 0.179172 1.39704 0.239116 1.51029C0.350082 1.7365 0.512349 2.05004 0.73456 2.43289C1.31253 3.42535 1.98753 4.34513 2.759 5.19251C2.79663 5.23814 2.8365 5.28181 2.8786 5.32322V5.32294Z" fill="black"/>
</svg>
