<svg width="24" height="15" viewBox="0 0 24 15" fill="none" xmlns="http://www.w3.org/2000/svg">
<mask id="mask0_1462_26582" style="mask-type:luminance" maskUnits="userSpaceOnUse" x="0" y="0" width="24" height="15">
<path d="M0.5 0.5H23.5V14.0224H0.5V0.5Z" fill="white" stroke="white"/>
</mask>
<g mask="url(#mask0_1462_26582)">
<path d="M0.541151 7.11923L0.541369 7.11885C2.895 3.04354 7.27952 0.511292 11.9813 0.511292C16.6832 0.511292 21.0677 3.04354 23.4213 7.11885L23.4215 7.11923C23.475 7.21151 23.475 7.32471 23.4215 7.41699L23.4213 7.41736C21.0677 11.4925 16.6832 14.0248 11.9813 14.0248C7.27952 14.0248 2.895 11.4925 0.541365 7.41736L0.541151 7.41699C0.487748 7.32471 0.487748 7.21151 0.541151 7.11923ZM1.3097 7.00146L1.1416 7.26811L1.3097 7.53476C3.60893 11.1818 7.65292 13.4275 11.9813 13.4275C16.3098 13.4275 20.3538 11.1818 22.653 7.53476L22.8211 7.26811L22.653 7.00146C20.3538 3.35441 16.3098 1.10873 11.9813 1.10873C7.65292 1.10873 3.60893 3.35442 1.3097 7.00146Z" fill="black" stroke="black"/>
</g>
<path d="M7.68921 7.26822C7.68921 4.9019 9.61492 2.97607 11.9812 2.97607C14.3476 2.97607 16.2733 4.90191 16.2733 7.26822C16.2733 9.63451 14.3477 11.5602 11.9812 11.5602C9.61489 11.5602 7.68921 9.63452 7.68921 7.26822ZM8.28648 7.26822C8.28648 9.30583 9.94359 10.9629 11.9812 10.9629C14.019 10.9629 15.6759 9.30581 15.6759 7.26822C15.6759 5.23045 14.019 3.57351 11.9812 3.57351C9.94361 3.57351 8.28648 5.23044 8.28648 7.26822Z" fill="black" stroke="black"/>
</svg>
