<svg width="40" height="33" viewBox="0 0 40 33" fill="none" xmlns="http://www.w3.org/2000/svg">
<path d="M38.4424 0C38.3014 0 38.1569 0.0249808 38.0124 0.0802951L0.77417 14.2301C-0.278588 14.6289 -0.250931 16.1268 0.816102 16.4873L9.44962 19.4047L14.6554 29.8243C14.6572 29.8279 14.659 29.8296 14.6599 29.8332L14.6733 29.8609L14.6777 29.8591C14.7723 30.0509 14.9677 30.1758 15.1782 30.1758C15.3013 30.1758 15.4271 30.1348 15.536 30.042L20.4135 25.9059L14.9677 21.7734L15.3941 27.2013L11.4793 19.096L32.2864 6.59758L14.9677 21.7734L28.4501 32.0047C28.9016 32.3473 29.419 32.5053 29.9267 32.5053C30.9955 32.5053 32.0241 31.8031 32.3132 30.6451L39.6022 1.4926C39.7994 0.702136 39.182 0 38.4424 0Z" fill="white"/>
</svg>
