<svg width="38" height="38" viewBox="0 0 38 38" fill="none" xmlns="http://www.w3.org/2000/svg">
<mask id="mask0_1378_114" style="mask-type:luminance" maskUnits="userSpaceOnUse" x="0" y="0" width="38" height="38">
<path d="M0 0H38V38H0V0Z" fill="white"/>
</mask>
<g mask="url(#mask0_1378_114)">
<path d="M19 2.07595C9.66768 2.07595 2.07583 9.6678 2.07583 19.0001C2.07583 28.3324 9.66768 35.9243 19 35.9243C28.3323 35.9243 35.9242 28.3324 35.9242 19.0001C35.9242 9.6678 28.3323 2.07595 19 2.07595ZM19 37.9983C13.9256 37.9983 9.15502 36.0219 5.5664 32.4337C1.97779 28.8456 0.00183105 24.0745 0.00183105 19.0001C0.00183105 13.9258 1.97779 9.15468 5.5664 5.56653C9.15502 1.97791 13.9256 0.00195312 19 0.00195312C24.0744 0.00195312 28.845 1.97791 32.4336 5.56653C36.0217 9.15468 37.9982 13.9258 37.9982 19.0001C37.9982 24.0745 36.0217 28.8451 32.4336 32.4337C28.845 36.0219 24.0744 37.9983 19 37.9983Z" fill="#523705"/>
</g>
<path d="M26.8837 17.9726C26.8837 22.3263 23.3537 25.8563 19 25.8563C14.6458 25.8563 11.1168 22.3263 11.1168 17.9726C11.1168 13.6184 14.6458 10.0894 19 10.0894C23.3537 10.0894 26.8837 13.6184 26.8837 17.9726Z" fill="#523705"/>
<path d="M31.0889 32.2835C28.6297 29.623 24.1367 27.8418 19 27.8418C13.8638 27.8418 9.37034 29.623 6.91058 32.2835C10.102 35.1895 14.3439 36.9611 19 36.9611C23.6561 36.9611 27.898 35.1895 31.0889 32.2835Z" fill="#523705"/>
</svg>
