<svg width="40" height="36" viewBox="0 0 40 36" fill="none" xmlns="http://www.w3.org/2000/svg">
<path d="M23.6627 10.0088C22.5926 10.0088 21.7226 10.8788 21.7226 11.9479C21.7226 13.0176 22.5931 13.8875 23.6627 13.8875C24.7323 13.8875 25.6028 13.0176 25.6028 11.9479C25.6028 10.8788 24.7323 10.0088 23.6627 10.0088Z" fill="#523705"/>
<path d="M15.6168 10.0088C14.5472 10.0088 13.6767 10.8788 13.6767 11.9479C13.6767 13.0176 14.5472 13.8875 15.6168 13.8875C16.6864 13.8875 17.5569 13.0176 17.5569 11.9479C17.5569 10.8788 16.6869 10.0088 15.6168 10.0088Z" fill="#523705"/>
<mask id="mask0_1378_113" style="mask-type:luminance" maskUnits="userSpaceOnUse" x="0" y="0" width="32" height="30">
<path d="M0 0H31.3508V29.1112H0V0Z" fill="white"/>
</mask>
<g mask="url(#mask0_1378_113)">
<path d="M31.2341 10.3049C31.2341 4.62633 26.616 0.00634766 20.9409 0.00634766H10.2932C4.61757 0.00634766 0 4.62633 0 10.3049V13.1174C0 17.5469 2.81587 21.4681 7.00617 22.8748L7.4185 23.0132L7.20052 23.3889C6.64159 24.3539 5.88252 25.8686 4.87992 28.0209C4.75887 28.2794 4.81337 28.5885 5.01398 28.7906C5.21315 28.9902 5.53096 29.0462 5.78077 28.9304L17.8414 23.4159H20.9409C26.616 23.4159 31.2341 18.7959 31.2341 13.1174V10.3049ZM29.8679 13.1174C29.8679 18.0431 25.8632 22.0506 20.9409 22.0506H17.6924C17.5955 22.0506 17.4971 22.0723 17.4084 22.1128L6.91888 26.9093L7.37316 26.007C7.7879 25.1828 8.53781 23.7303 8.89805 23.2601L8.93856 23.2071L8.99595 23.1723C9.17534 23.0638 9.29301 22.883 9.31954 22.6751C9.36632 22.313 9.12037 21.9792 8.76012 21.9151C4.47579 21.1657 1.36574 17.4658 1.36574 13.1174V10.3049C1.36574 5.37913 5.37037 1.37161 10.2927 1.37161H20.9404C25.8632 1.37161 29.8679 5.37913 29.8679 10.3049V13.1174Z" fill="#523705"/>
</g>
<path d="M7.57139 10.0088C6.50127 10.0088 5.63129 10.8788 5.63129 11.9479C5.63129 13.0176 6.50127 13.8875 7.57139 13.8875C8.64103 13.8875 9.51149 13.0176 9.51149 11.9479C9.51149 10.8788 8.64103 10.0088 7.57139 10.0088Z" fill="#523705"/>
<mask id="mask1_1378_113" style="mask-type:luminance" maskUnits="userSpaceOnUse" x="12" y="6" width="28" height="30">
<path d="M12.3384 6.27197H40V35.1609H12.3384V6.27197Z" fill="white"/>
</mask>
<g mask="url(#mask1_1378_113)">
<path d="M13.8339 26.469L12.4282 27.1119C14.2212 28.6295 16.5326 29.5516 19.0591 29.5516H22.1586L34.2188 35.0662C34.4686 35.1814 34.7864 35.126 34.986 34.9263C35.1866 34.7238 35.2407 34.4151 35.1201 34.1566C34.1175 32.0043 33.3584 30.4891 32.7995 29.5246L32.5815 29.1489L32.9934 29.0105C37.1841 27.6038 40 23.6826 40 19.2531V16.4406C40 11.4218 36.3889 7.2421 31.6324 6.33643C31.8147 6.82591 31.9623 7.33131 32.0766 7.84974C32.079 7.8507 32.0814 7.85166 32.0838 7.85215C32.0809 7.85166 32.078 7.8507 32.0756 7.84974C32.2488 8.64063 32.3467 9.46239 32.3467 10.3063V13.1188C32.3467 19.4093 27.2309 24.527 20.9423 24.527H18.0845M30.68 28.8109V28.8104V28.8109Z" fill="#523705"/>
</g>
</svg>
