<svg width="66" height="66" viewBox="0 0 66 66" fill="none" xmlns="http://www.w3.org/2000/svg">
<path d="M33 0C32.4597 0 31.9202 0.0135273 31.3807 0.0397859C30.8412 0.0660447 30.3025 0.10583 29.7654 0.159144C29.2275 0.211661 28.692 0.277705 28.1581 0.357277C27.6233 0.436053 27.0918 0.528357 26.5618 0.634187C26.0319 0.739222 25.5051 0.857784 24.9816 0.989077C24.4572 1.12037 23.9376 1.2644 23.4204 1.42115C22.9039 1.57791 22.3907 1.7474 21.8822 1.92882C21.3738 2.11104 20.8701 2.30519 20.3712 2.51208C19.8723 2.71897 19.3789 2.93779 18.8903 3.16855C18.4026 3.39931 17.9204 3.642 17.4437 3.89663C16.9671 4.15126 16.4976 4.41703 16.0345 4.69473C15.5714 4.97244 15.1147 5.26128 14.6659 5.56127C14.2171 5.86126 13.7755 6.17238 13.3418 6.49385C12.9081 6.81612 12.4824 7.14793 12.0647 7.49089C11.6477 7.83304 11.2387 8.18555 10.8385 8.54839C10.4382 8.91124 10.0475 9.28364 9.66558 9.66558C9.28364 10.0475 8.91124 10.4382 8.54839 10.8385C8.18555 11.2387 7.83304 11.6477 7.49009 12.0647C7.14793 12.4824 6.81532 12.9081 6.49385 13.3418C6.17238 13.7755 5.86126 14.2171 5.56127 14.6659C5.26128 15.1155 4.97244 15.5714 4.69473 16.0345C4.41703 16.4976 4.15126 16.9679 3.89663 17.4437C3.642 17.9204 3.39931 18.4026 3.16775 18.8903C2.93699 19.3789 2.71817 19.8723 2.51208 20.3712C2.30519 20.8701 2.11104 21.3738 1.92882 21.883C1.7466 22.3915 1.57791 22.9039 1.42036 23.4204C1.2636 23.9376 1.12037 24.458 0.989077 24.9816C0.857784 25.5059 0.739222 26.0327 0.634187 26.5618C0.528357 27.0918 0.436053 27.6233 0.357277 28.1581C0.277705 28.692 0.211661 29.2283 0.158348 29.7654C0.10583 30.3025 0.0660445 30.8412 0.0397859 31.3807C0.0127314 31.9202 0 32.4597 0 33C0 33.5403 0.0127314 34.0798 0.0397859 34.6193C0.0660445 35.1588 0.10583 35.6975 0.158348 36.2346C0.211661 36.7717 0.277705 37.308 0.357277 37.8419C0.436053 38.3767 0.528357 38.9082 0.634187 39.4382C0.739222 39.9673 0.857784 40.4941 0.989077 41.0184C1.12037 41.542 1.2636 42.0624 1.42036 42.5796C1.57791 43.0961 1.7466 43.6085 1.92882 44.117C2.11104 44.6262 2.30519 45.1299 2.51208 45.6288C2.71817 46.1278 2.93699 46.6211 3.16775 47.1097C3.39931 47.5974 3.642 48.0796 3.89663 48.5563C4.15126 49.0321 4.41703 49.5024 4.69473 49.9655C4.97244 50.4286 5.26128 50.8845 5.56127 51.3341C5.86126 51.7829 6.17238 52.2245 6.49385 52.6582C6.81532 53.0919 7.14793 53.5176 7.49009 53.9353C7.83304 54.3523 8.18555 54.7613 8.54839 55.1615C8.91124 55.5618 9.28364 55.9525 9.66558 56.3344C10.0475 56.7164 10.4382 57.0888 10.8385 57.4516C11.2387 57.8145 11.6477 58.167 12.0647 58.5091C12.4824 58.8521 12.9081 59.1839 13.3418 59.5061C13.7755 59.8276 14.2171 60.1387 14.6659 60.4387C15.1147 60.7387 15.5714 61.0276 16.0345 61.3053C16.4976 61.583 16.9671 61.8487 17.4437 62.1034C17.9204 62.358 18.4026 62.6007 18.8903 62.8315C19.3789 63.0622 19.8723 63.281 20.3712 63.4879C20.8701 63.6948 21.3738 63.889 21.8822 64.0712C22.3907 64.2526 22.9039 64.4221 23.4204 64.5788C23.9376 64.7356 24.4572 64.8796 24.9816 65.0109C25.5051 65.1422 26.0319 65.2608 26.5618 65.3658C27.0918 65.4716 27.6233 65.5639 28.1581 65.6427C28.692 65.7223 29.2275 65.7883 29.7654 65.8409C30.3025 65.8942 30.8412 65.934 31.3807 65.9602C31.9202 65.9865 32.4597 66 33 66C33.5395 66 34.0798 65.9865 34.6193 65.9602C35.1588 65.934 35.6967 65.8942 36.2346 65.8409C36.7717 65.7883 37.308 65.7223 37.8419 65.6427C38.3759 65.5639 38.9082 65.4716 39.4382 65.3658C39.9673 65.2608 40.4941 65.1422 41.0184 65.0109C41.542 64.8796 42.0624 64.7356 42.5788 64.5788C43.0961 64.4221 43.6085 64.2526 44.117 64.0712C44.6254 63.889 45.1291 63.6948 45.628 63.4879C46.127 63.281 46.6211 63.0622 47.1089 62.8315C47.5974 62.6007 48.0796 62.358 48.5555 62.1034C49.0321 61.8487 49.5016 61.583 49.9655 61.3053C50.4286 61.0276 50.8845 60.7387 51.3333 60.4387C51.7829 60.1387 52.2237 59.8276 52.6582 59.5061C53.0919 59.1839 53.5176 58.8521 53.9345 58.5091C54.3523 58.167 54.7613 57.8145 55.1615 57.4516C55.5618 57.0888 55.9525 56.7164 56.3344 56.3344C56.7164 55.9525 57.0888 55.5618 57.4508 55.1615C57.8137 54.7613 58.1662 54.3523 58.5091 53.9353C58.8521 53.5176 59.1839 53.0919 59.5054 52.6582C59.8276 52.2245 60.138 51.7829 60.4379 51.3341C60.7379 50.8845 61.0268 50.4286 61.3045 49.9655C61.5822 49.5024 61.8487 49.0321 62.1034 48.5563C62.358 48.0796 62.6007 47.5974 62.8315 47.1097C63.0622 46.6211 63.281 46.1278 63.4879 45.6288C63.6948 45.1299 63.889 44.6262 64.0704 44.117C64.2526 43.6085 64.4221 43.0961 64.5788 42.5796C64.7356 42.0624 64.8796 41.542 65.0109 41.0184C65.1422 40.4941 65.26 39.9673 65.3658 39.4382C65.4708 38.9082 65.5631 38.3767 65.6427 37.8419C65.7215 37.308 65.7875 36.7717 65.8409 36.2346C65.8942 35.6975 65.9332 35.1588 65.9602 34.6193C65.9865 34.0798 66 33.5403 66 33C66 32.4597 65.9865 31.9202 65.9602 31.3807C65.9332 30.8412 65.8942 30.3025 65.8409 29.7654C65.7875 29.2283 65.7215 28.692 65.6427 28.1581C65.5631 27.6233 65.4708 27.0918 65.3658 26.5618C65.26 26.0327 65.1422 25.5059 65.0109 24.9816C64.8796 24.458 64.7356 23.9376 64.5788 23.4204C64.4221 22.9039 64.2526 22.3915 64.0704 21.883C63.889 21.3738 63.6948 20.8701 63.4879 20.3712C63.281 19.8723 63.0622 19.3789 62.8315 18.8903C62.6007 18.4026 62.358 17.9204 62.1034 17.4437C61.8487 16.9679 61.5822 16.4976 61.3045 16.0345C61.0268 15.5714 60.7379 15.1155 60.4379 14.6659C60.138 14.2171 59.8276 13.7755 59.5054 13.3418C59.1839 12.9081 58.8521 12.4824 58.5091 12.0647C58.1662 11.6477 57.8137 11.2387 57.4508 10.8385C57.0888 10.4382 56.7164 10.0475 56.3344 9.66558C55.9525 9.28364 55.5618 8.91124 55.1615 8.54839C54.7613 8.18555 54.3523 7.83304 53.9345 7.49089C53.5176 7.14793 53.0919 6.81612 52.6582 6.49385C52.2237 6.17238 51.7829 5.86126 51.3333 5.56127C50.8845 5.26128 50.4286 4.97244 49.9655 4.69473C49.5016 4.41703 49.0321 4.15126 48.5555 3.89663C48.0796 3.642 47.5974 3.39931 47.1089 3.16855C46.6211 2.93779 46.127 2.71897 45.628 2.51208C45.1291 2.30519 44.6254 2.11104 44.117 1.92882C43.6085 1.7474 43.0961 1.57791 42.5788 1.42115C42.0624 1.2644 41.542 1.12037 41.0184 0.989077C40.4941 0.857784 39.9673 0.739222 39.4374 0.634187C38.9082 0.528357 38.3759 0.436053 37.8419 0.357277C37.308 0.277705 36.7717 0.211661 36.2346 0.159144C35.6967 0.10583 35.1588 0.0660447 34.6193 0.0397859C34.0798 0.0135273 33.5395 0 33 0ZM45.2326 40.5673C45.3113 40.6429 45.3861 40.7224 45.457 40.806C45.5278 40.8887 45.5938 40.9755 45.6559 41.0654C45.718 41.1553 45.7752 41.2484 45.8286 41.3439C45.8811 41.4394 45.9296 41.5373 45.9726 41.6383C46.0156 41.7386 46.0537 41.8404 46.0864 41.9447C46.1198 42.0489 46.1468 42.1547 46.1699 42.2614C46.1922 42.3688 46.2089 42.4762 46.2208 42.5852C46.2328 42.6934 46.2391 42.8024 46.2399 42.9123C46.2407 43.0213 46.2368 43.1303 46.2264 43.2393C46.2169 43.3475 46.2017 43.4557 46.1811 43.5632C46.1604 43.6706 46.1341 43.7764 46.1031 43.8814C46.072 43.9857 46.0362 44.0891 45.9949 44.1902C45.9535 44.2912 45.9065 44.3899 45.8556 44.487C45.8047 44.5833 45.749 44.6772 45.6877 44.7679C45.6272 44.8586 45.5628 44.9469 45.4936 45.0312C45.4243 45.1156 45.3511 45.1968 45.2739 45.2739C45.1968 45.3511 45.1156 45.4243 45.0312 45.4936C44.9461 45.5628 44.8586 45.628 44.7679 45.6885C44.6764 45.749 44.5833 45.8047 44.4862 45.8556C44.3899 45.9073 44.2912 45.9535 44.1902 45.9949C44.0891 46.0362 43.9857 46.072 43.8814 46.1039C43.7764 46.1349 43.6706 46.1604 43.5632 46.1811C43.4557 46.2017 43.3475 46.2169 43.2385 46.2272C43.1303 46.2368 43.0213 46.2415 42.9115 46.2407C42.8024 46.2392 42.6934 46.2328 42.5844 46.2216C42.4762 46.2097 42.368 46.1922 42.2614 46.1699C42.1547 46.1476 42.0489 46.1198 41.9447 46.0864C41.8404 46.0537 41.7386 46.0156 41.6375 45.9726C41.5373 45.9296 41.4394 45.8819 41.3439 45.8286C41.2484 45.776 41.1553 45.718 41.0654 45.6559C40.9755 45.5938 40.8887 45.5278 40.8052 45.457C40.7224 45.3861 40.6429 45.3113 40.5665 45.2334L33 37.6661L25.4327 45.2334C25.2792 45.3822 25.1121 45.5143 24.9314 45.6312C24.7516 45.7474 24.5622 45.8453 24.3633 45.9248C24.1644 46.0036 23.9599 46.0633 23.749 46.1031C23.5381 46.1421 23.3257 46.1612 23.1116 46.1596C22.8976 46.1572 22.6851 46.1349 22.475 46.0919C22.2658 46.049 22.0621 45.9853 21.8639 45.9026C21.6666 45.8198 21.4788 45.7188 21.3006 45.5994C21.1231 45.48 20.9584 45.3448 20.8072 45.1928C20.6552 45.0416 20.52 44.8769 20.4006 44.6986C20.2812 44.5212 20.1802 44.3334 20.0966 44.1353C20.0139 43.9379 19.951 43.7342 19.9081 43.5242C19.8651 43.3141 19.842 43.1024 19.8404 42.8884C19.8388 42.6735 19.8571 42.4611 19.8969 42.251C19.9367 42.0401 19.9956 41.8356 20.0752 41.6367C20.1547 41.4378 20.2526 41.2476 20.3688 41.0678C20.485 40.8879 20.6178 40.7208 20.7666 40.5673L28.3339 33L20.7666 25.4327C20.6178 25.2792 20.485 25.1121 20.3688 24.9322C20.2526 24.7524 20.1547 24.5622 20.0752 24.3633C19.9956 24.1644 19.9367 23.9599 19.8969 23.749C19.8571 23.5389 19.8388 23.3265 19.8404 23.1116C19.842 22.8976 19.8651 22.6859 19.9081 22.4758C19.951 22.2658 20.0139 22.0621 20.0974 21.8647C20.1802 21.6666 20.2812 21.4788 20.4006 21.3014C20.52 21.1231 20.6552 20.9584 20.8072 20.8072C20.9584 20.656 21.1231 20.52 21.3014 20.4006C21.4788 20.2812 21.6666 20.1802 21.8639 20.0974C22.0621 20.0147 22.2658 19.9518 22.4758 19.9081C22.6851 19.8651 22.8976 19.8428 23.1116 19.8404C23.3257 19.8388 23.5381 19.8579 23.749 19.8969C23.9599 19.9367 24.1644 19.9964 24.3633 20.076C24.5622 20.1547 24.7516 20.2526 24.9314 20.3688C25.1121 20.4857 25.2792 20.6178 25.4327 20.7666L33 28.3339L40.5665 20.7666C40.7208 20.6178 40.8879 20.4857 41.0678 20.3688C41.2476 20.2526 41.437 20.1547 41.6359 20.0752C41.8349 19.9964 42.0401 19.9367 42.251 19.8969C42.4611 19.8579 42.6735 19.8388 42.8876 19.8404C43.1024 19.8428 43.3141 19.8651 43.5242 19.9081C43.7342 19.951 43.9379 20.0147 44.1353 20.0974C44.3326 20.1802 44.5204 20.2812 44.6986 20.4006C44.8769 20.52 45.0416 20.6552 45.1928 20.8072C45.344 20.9584 45.48 21.1231 45.5994 21.3014C45.7188 21.4788 45.8198 21.6666 45.9026 21.8647C45.9853 22.0621 46.0482 22.2658 46.0919 22.4758C46.1349 22.6859 46.1572 22.8976 46.1588 23.1116C46.1612 23.3265 46.1421 23.5389 46.1023 23.749C46.0633 23.9599 46.0036 24.1644 45.924 24.3633C45.8445 24.5622 45.7466 24.7524 45.6304 24.9322C45.5142 25.1121 45.3814 25.2792 45.2326 25.4327L37.6661 33L45.2326 40.5673Z" fill="white"/>
</svg>
